<?xml version="1.0" encoding="UTF-8" standalone="no"?>
<svg width="50px" height="50px" viewBox="0 0 50 50" version="1.1" xmlns="http://www.w3.org/2000/svg" xmlns:xlink="http://www.w3.org/1999/xlink" xmlns:sketch="http://www.bohemiancoding.com/sketch/ns">
    <title>heart-bubble</title>
    <description>Created with Sketch (http://www.bohemiancoding.com/sketch)</description>
    <defs></defs>
    <g id="Page-1" stroke="none" stroke-width="1" fill="none" fill-rule="evenodd" sketch:type="MSPage">
        <path d="M0,25 C0,11.1928806 11.1928806,0 25,0 C38.8071194,0 50,11.1928806 50,25 C50,38.8071194 38.8071194,50 25,50 C19.5777677,50 14.5587121,48.2737967 10.4624025,45.3409596 L1.75735931,48.2426407 L4.65904039,39.5375975 C1.72620329,35.4412879 0,30.4222323 0,25 Z M23.8937792,36.7880734 C24.2832954,37.0577982 24.7841018,37.0577982 25.1550695,36.7880734 C26.2123276,36.0174312 28.4937792,34.3605505 28.4937792,34.3605505 C30.4228115,32.9348624 32.2405534,31.3743119 33.6873276,29.3899083 C34.9115212,27.6944954 35.8203921,25.6908257 35.9873276,23.5715596 C36.2841018,19.7183486 33.8913599,16.0192661 29.922005,16.0192661 C27.6034566,16.0192661 25.5631341,17.3293578 24.5244244,19.2752294 C23.4486179,17.3100917 21.4268437,16 19.1082954,16 C15.1574889,16 12.7276502,19.6990826 13.0244244,23.5522936 C13.1913599,25.6715596 14.0816825,27.6944954 15.3244244,29.3899083 C16.7526502,31.3550459 18.6074889,32.9348624 20.5365212,34.3605505 C20.5365212,34.3605505 22.8365212,36.0174312 23.8937792,36.7880734 Z" id="Oval" fill="#27AE60" sketch:type="MSShapeGroup"></path>
    </g>
</svg>